# xmcd CD database file
#
# Track frame offsets:
#	150
#	17030
#	28405
#	44000
#	54482
#	71052
#	81942
#	97255
#	110060
#	122617
#	141070
#	169932
#	184540
#	207390
#	220337
#	233020
#	265470
#
# Disc length: 3771 seconds
#
# Revision: 0
# Processed by: cddbd v1.5.2PL0 Copyright (c) Steve Scherf et al.
# Submitted via: CDex 1.70beta2
#
DISCID=070eb911
DTITLE=Glen Campbell - Gr. Hits and Finest Perf. [CD3)
DYEAR=1900
DGENRE=Country
TTITLE0=If You Could Read My Mind
TTITLE1=(Sittin' On The) Dock Of The Bay
TTITLE2=He Ain't Heavy, He's My Brother
TTITLE3=Help Me Make It Through The Night
TTITLE4=If You Go Away
TTITLE5=Running Scared
TTITLE6=Bridge Over Troubled Water
TTITLE7=(I Never Promised You A) Rose Garden
TTITLE8=The Impossible Dream (The Quest)
TTITLE9=My Way
TTITLE10=Medley - Stars and Rhinestone Cowboy (live)
TTITLE11=Galveston (live)
TTITLE12=Beach Boys Medley - Good Vibrations, Help Me Rhonda, Surfer Girl, Surfin' U.S.A.
TTITLE13=God Only Knows (live)
TTITLE14=Classical Gas (live)
TTITLE15=MacArthur Park (live)
TTITLE16=Amazing Grace (live)
EXTD=
EXTT0=
EXTT1=
EXTT2=
EXTT3=
EXTT4=
EXTT5=
EXTT6=
EXTT7=
EXTT8=
EXTT9=
EXTT10=
EXTT11=
EXTT12=
EXTT13=
EXTT14=
EXTT15=
EXTT16=
PLAYORDER=
